<?xml version="1.0" encoding="utf-8"?>
<!-- Generator: Adobe Illustrator 27.5.0, SVG Export Plug-In . SVG Version: 6.00 Build 0)  -->
<svg version="1.1" id="background" xmlns="http://www.w3.org/2000/svg" xmlns:xlink="http://www.w3.org/1999/xlink" x="0px" y="0px"
	 viewBox="0 0 2200 1466" style="enable-background:new 0 0 2200 1466;" xml:space="preserve">
<rect style="fill:#FFFFFF;" width="2200" height="1466"/>
<g>
	<linearGradient id="SVGID_1_" gradientUnits="userSpaceOnUse" x1="1031.1782" y1="619.8288" x2="746.5938" y2="216.4067">
		<stop  offset="0" style="stop-color:#0C4247"/>
		<stop  offset="1" style="stop-color:#002633"/>
	</linearGradient>
	<path style="fill:url(#SVGID_1_);" d="M1868.572,0c-23.232,62.531-81.669,111.81-144.465,139.207
		c-77.725,33.917-163.709,42.785-245.766,64.217c-82.057,21.432-165.862,60.061-209.255,132.933
		c-34.729,58.331-39.67,132.439-82.163,185.379c-34.508,42.979-88.878,65.249-142.789,76.702
		c-53.911,11.462-109.481,13.862-163.197,26.214C756.296,653.31,650.53,732.914,548.285,809.731
		C446.04,886.556,338.641,964.651,213.164,989.401C142.559,1003.324,64.578,995.233,0,964.951V0H1868.572z"/>
</g>
<g>
	
		<linearGradient id="SVGID_00000018222542709342613620000005699651450180636320_" gradientUnits="userSpaceOnUse" x1="822.9554" y1="414.7398" x2="628.2808" y2="123.9006">
		<stop  offset="0" style="stop-color:#0C4247"/>
		<stop  offset="1" style="stop-color:#002633"/>
	</linearGradient>
	<path style="fill:url(#SVGID_00000018222542709342613620000005699651450180636320_);" d="M1587.671,0
		c-18.167,13.279-39.096,23.373-60.352,29.594c-57.934,16.959-119.619,12.706-179.812,17.241
		c-60.193,4.544-124.277,20.735-162.853,67.155c-27.3,32.849-37.817,75.961-52.473,116.072
		c-14.656,40.12-37.235,81.493-76.596,98.072c-70.411,29.647-162.333-32.382-223.426,13.491
		c-41.135,30.882-41.99,93.784-76.022,132.351c-36.873,41.796-101.107,43.508-156.191,35.046
		c-55.093-8.453-112.728-23.629-165.165-4.738c-66.537,23.964-102.404,93.89-151.277,145.012
		C211.867,724.232,102.148,756.808,0,742.47V0H1587.671z"/>
</g>
<g>
	
		<linearGradient id="SVGID_00000047048195855535965490000014793617814653011111_" gradientUnits="userSpaceOnUse" x1="625.9179" y1="331.5616" x2="506.2986" y2="104.0504">
		<stop  offset="0" style="stop-color:#0C4247"/>
		<stop  offset="1" style="stop-color:#002633"/>
	</linearGradient>
	<path style="fill:url(#SVGID_00000047048195855535965490000014793617814653011111_);" d="M1166.16,0
		c-43.173,15.67-87.051,32.955-119.557,65.196c-38.249,37.932-56.576,92.61-95.619,129.73
		c-53.434,50.814-133.895,58.623-207.632,58.049c-73.737-0.582-151.189-6.062-217.435,26.311
		c-97.49,47.646-147.818,166.612-249.19,205.311c-56.681,21.635-119.601,14.153-180.191,11.047
		c-31.888-1.632-65.214-1.5-96.537,4.526V0H1166.16z"/>
</g>
<g>
	
		<linearGradient id="SVGID_00000073707110838684965770000001835880735673079459_" gradientUnits="userSpaceOnUse" x1="510.6986" y1="201.8973" x2="428.6069" y2="-9.1956">
		<stop  offset="0" style="stop-color:#0C4247"/>
		<stop  offset="1" style="stop-color:#002633"/>
	</linearGradient>
	<path style="fill:url(#SVGID_00000073707110838684965770000001835880735673079459_);" d="M0,0h989.039
		c-5.77,12.803-14.047,24.353-24.917,33.696c-40.058,34.42-99.272,30.661-151.736,24.564
		c-52.455-6.097-111.298-10.897-152.415,22.253c-41.091,33.132-52.587,96.042-98.592,121.921
		c-36.079,20.303-81.096,10.703-120.624-1.632c-39.52-12.326-81.599-26.991-121.286-15.194
		c-47.549,14.135-76.04,61.173-113.504,93.687c-45.776,39.732-109.092,58.446-169.109,50.002
		c-12.529-1.765-24.873-4.703-36.855-8.709V0z"/>
</g>
<g>
	
		<linearGradient id="SVGID_00000145773475986160517880000010097047178208092819_" gradientUnits="userSpaceOnUse" x1="1276.8848" y1="1014.4067" x2="1472.3579" y2="1367.6714">
		<stop  offset="0" style="stop-color:#0C4247"/>
		<stop  offset="1" style="stop-color:#002633"/>
	</linearGradient>
	<path style="fill:url(#SVGID_00000145773475986160517880000010097047178208092819_);" d="M2200,472v994H303.519
		c31.079-73.038,91.059-135.525,161.023-175.118c103.985-58.854,226.725-74.792,346.179-77.619
		c119.454-2.826,239.474,6.264,358.166-7.469c118.692-13.741,239.253-53.219,323.374-138.068
		c48.099-48.524,81.756-109.15,122.253-164.177c40.488-55.027,91.546-106.908,157.364-125.248
		c52.75-14.707,113.083-7.442,158.383-38.211c64.817-44.032,65.144-140.832,114.253-201.883
		C2081.025,492.802,2141.438,472.514,2200,472z"/>
</g>
<g>
	
		<linearGradient id="SVGID_00000064312781772862320490000007215821424846981810_" gradientUnits="userSpaceOnUse" x1="1405.9844" y1="1146.0314" x2="1533.1597" y2="1430.9982">
		<stop  offset="0" style="stop-color:#0C4247"/>
		<stop  offset="1" style="stop-color:#002633"/>
	</linearGradient>
	<path style="fill:url(#SVGID_00000064312781772862320490000007215821424846981810_);" d="M2200,666.406V1466H540.717
		c98.492-50.677,186.467-134.391,291.622-174.41c121.739-46.336,256.91-30.885,386.72-20.076
		c129.811,10.809,268.472,14.379,381.024-51.199c141.523-82.456,205.471-251.825,321.975-366.946
		C2001.714,774.652,2103.67,723.532,2200,666.406z"/>
</g>
<g>
	
		<linearGradient id="SVGID_00000057140893113159537680000001092811740214859943_" gradientUnits="userSpaceOnUse" x1="1634.2894" y1="1281.3623" x2="1792.0811" y2="1566.3292">
		<stop  offset="0" style="stop-color:#0C4247"/>
		<stop  offset="1" style="stop-color:#002633"/>
	</linearGradient>
	<path style="fill:url(#SVGID_00000057140893113159537680000001092811740214859943_);" d="M2200,1466H1006.349
		c67.909-43.19,140.008-77.991,219.239-86.443c96.118-10.259,192.262,19.783,288.911,17.746
		c108.175-2.277,214.924-46.557,292.968-121.509c92.742-89.074,150.701-222.092,270.226-269.517
		c38.84-15.407,80.321-19.916,122.306-21.936V1466z"/>
</g>
</svg>
